<mxfile host="app.diagrams.net" modified="2023-12-28T14:26:45.769Z" agent="Mozilla/5.0 (Windows NT 10.0; Win64; x64) AppleWebKit/537.36 (KHTML, like Gecko) Chrome/120.0.0.0 Safari/537.36 Edg/120.0.0.0" etag="qLKZnDIIwWrrR9WM8vxB" version="22.1.15" type="github">
  <diagram name="第 1 页" id="JlQSyYDtJ_1VH4ozLqls">
    <mxGraphModel dx="1042" dy="535" grid="1" gridSize="10" guides="1" tooltips="1" connect="1" arrows="1" fold="1" page="1" pageScale="1" pageWidth="827" pageHeight="1169" math="0" shadow="0">
      <root>
        <mxCell id="0" />
        <mxCell id="1" parent="0" />
        <mxCell id="hXT5IUuKc7Ygu6IwHs1R-1" value="&lt;u&gt;: 店鋪管理員&lt;/u&gt;" style="shape=umlActor;verticalLabelPosition=bottom;verticalAlign=top;html=1;outlineConnect=0;" parent="1" vertex="1">
          <mxGeometry x="40" y="50" width="30" height="52" as="geometry" />
        </mxCell>
        <mxCell id="hXT5IUuKc7Ygu6IwHs1R-2" value="&lt;u&gt;評價檔案&lt;/u&gt;" style="rounded=0;whiteSpace=wrap;html=1;fillColor=#fff2cc;strokeColor=#10100f;" parent="1" vertex="1">
          <mxGeometry x="410" y="52" width="100" height="50" as="geometry" />
        </mxCell>
        <mxCell id="hXT5IUuKc7Ygu6IwHs1R-3" value="&lt;u&gt;評價控制&lt;/u&gt;" style="rounded=0;whiteSpace=wrap;html=1;fillColor=#fff2cc;strokeColor=#10100f;" parent="1" vertex="1">
          <mxGeometry x="280" y="50" width="100" height="50" as="geometry" />
        </mxCell>
        <mxCell id="hXT5IUuKc7Ygu6IwHs1R-4" value="&lt;u&gt;店鋪管理&lt;/u&gt;" style="rounded=0;whiteSpace=wrap;html=1;fillColor=#fff2cc;strokeColor=#10100f;" parent="1" vertex="1">
          <mxGeometry x="150" y="50" width="100" height="50" as="geometry" />
        </mxCell>
        <mxCell id="hXT5IUuKc7Ygu6IwHs1R-5" value="" style="rounded=0;whiteSpace=wrap;html=1;strokeColor=#FF3399;" parent="1" vertex="1">
          <mxGeometry x="50" y="140" width="10" height="30" as="geometry" />
        </mxCell>
        <mxCell id="hXT5IUuKc7Ygu6IwHs1R-6" style="edgeStyle=orthogonalEdgeStyle;rounded=0;orthogonalLoop=1;jettySize=auto;html=1;exitX=0.5;exitY=1;exitDx=0;exitDy=0;endArrow=none;endFill=0;dashed=1;" parent="1" source="hXT5IUuKc7Ygu6IwHs1R-7" edge="1">
          <mxGeometry relative="1" as="geometry">
            <mxPoint x="55" y="360" as="targetPoint" />
          </mxGeometry>
        </mxCell>
        <mxCell id="hXT5IUuKc7Ygu6IwHs1R-7" value="" style="rounded=0;whiteSpace=wrap;html=1;strokeColor=#FF3399;" parent="1" vertex="1">
          <mxGeometry x="50" y="308" width="10" height="22" as="geometry" />
        </mxCell>
        <mxCell id="hXT5IUuKc7Ygu6IwHs1R-8" style="edgeStyle=orthogonalEdgeStyle;rounded=0;orthogonalLoop=1;jettySize=auto;html=1;exitX=0.5;exitY=1;exitDx=0;exitDy=0;entryX=0.5;entryY=0;entryDx=0;entryDy=0;dashed=1;endArrow=none;endFill=0;" parent="1" source="hXT5IUuKc7Ygu6IwHs1R-5" target="hXT5IUuKc7Ygu6IwHs1R-7" edge="1">
          <mxGeometry relative="1" as="geometry">
            <mxPoint x="55" y="250" as="sourcePoint" />
          </mxGeometry>
        </mxCell>
        <mxCell id="hXT5IUuKc7Ygu6IwHs1R-9" style="edgeStyle=orthogonalEdgeStyle;rounded=0;orthogonalLoop=1;jettySize=auto;html=1;exitX=0.5;exitY=0;exitDx=0;exitDy=0;entryX=0.5;entryY=1;entryDx=0;entryDy=0;dashed=1;endArrow=none;endFill=0;" parent="1" source="hXT5IUuKc7Ygu6IwHs1R-11" target="hXT5IUuKc7Ygu6IwHs1R-4" edge="1">
          <mxGeometry relative="1" as="geometry">
            <Array as="points">
              <mxPoint x="200" y="140" />
            </Array>
          </mxGeometry>
        </mxCell>
        <mxCell id="hXT5IUuKc7Ygu6IwHs1R-10" style="edgeStyle=orthogonalEdgeStyle;rounded=0;orthogonalLoop=1;jettySize=auto;html=1;endArrow=none;endFill=0;dashed=1;" parent="1" source="hXT5IUuKc7Ygu6IwHs1R-11" edge="1">
          <mxGeometry relative="1" as="geometry">
            <mxPoint x="200" y="360" as="targetPoint" />
          </mxGeometry>
        </mxCell>
        <mxCell id="hXT5IUuKc7Ygu6IwHs1R-11" value="" style="rounded=0;whiteSpace=wrap;html=1;strokeColor=#FF3399;labelBackgroundColor=default;" parent="1" vertex="1">
          <mxGeometry x="195" y="140" width="10" height="60" as="geometry" />
        </mxCell>
        <mxCell id="hXT5IUuKc7Ygu6IwHs1R-12" style="edgeStyle=orthogonalEdgeStyle;rounded=0;orthogonalLoop=1;jettySize=auto;html=1;exitX=0.5;exitY=0;exitDx=0;exitDy=0;entryX=0.5;entryY=1;entryDx=0;entryDy=0;dashed=1;endArrow=none;endFill=0;" parent="1" source="hXT5IUuKc7Ygu6IwHs1R-14" target="hXT5IUuKc7Ygu6IwHs1R-3" edge="1">
          <mxGeometry relative="1" as="geometry" />
        </mxCell>
        <mxCell id="hXT5IUuKc7Ygu6IwHs1R-55" style="edgeStyle=orthogonalEdgeStyle;rounded=0;orthogonalLoop=1;jettySize=auto;html=1;dashed=1;endArrow=none;endFill=0;" parent="1" source="hXT5IUuKc7Ygu6IwHs1R-14" edge="1">
          <mxGeometry relative="1" as="geometry">
            <mxPoint x="330" y="360" as="targetPoint" />
          </mxGeometry>
        </mxCell>
        <mxCell id="hXT5IUuKc7Ygu6IwHs1R-14" value="" style="rounded=0;whiteSpace=wrap;html=1;strokeColor=#FF3399;labelBackgroundColor=default;" parent="1" vertex="1">
          <mxGeometry x="325" y="180" width="10" height="18" as="geometry" />
        </mxCell>
        <mxCell id="hXT5IUuKc7Ygu6IwHs1R-18" value="" style="edgeStyle=orthogonalEdgeStyle;rounded=0;orthogonalLoop=1;jettySize=auto;html=1;endArrow=none;endFill=0;dashed=1;exitX=0.5;exitY=0;exitDx=0;exitDy=0;entryX=0.5;entryY=1;entryDx=0;entryDy=0;" parent="1" source="hXT5IUuKc7Ygu6IwHs1R-20" target="hXT5IUuKc7Ygu6IwHs1R-2" edge="1">
          <mxGeometry relative="1" as="geometry">
            <mxPoint x="420.02857142857135" y="210" as="sourcePoint" />
            <mxPoint x="460" y="132" as="targetPoint" />
            <Array as="points" />
          </mxGeometry>
        </mxCell>
        <mxCell id="hXT5IUuKc7Ygu6IwHs1R-19" value="" style="edgeStyle=orthogonalEdgeStyle;rounded=0;orthogonalLoop=1;jettySize=auto;html=1;dashed=1;endArrow=none;endFill=0;" parent="1" source="hXT5IUuKc7Ygu6IwHs1R-45" edge="1">
          <mxGeometry relative="1" as="geometry">
            <mxPoint x="460" y="360" as="targetPoint" />
            <Array as="points">
              <mxPoint x="460" y="360" />
            </Array>
          </mxGeometry>
        </mxCell>
        <mxCell id="hXT5IUuKc7Ygu6IwHs1R-20" value="" style="rounded=0;whiteSpace=wrap;html=1;strokeColor=#FF3399;labelBackgroundColor=default;" parent="1" vertex="1">
          <mxGeometry x="455" y="215" width="10" height="25" as="geometry" />
        </mxCell>
        <mxCell id="hXT5IUuKc7Ygu6IwHs1R-21" value="" style="endArrow=openThin;endFill=0;endSize=7;html=1;rounded=0;edgeStyle=orthogonalEdgeStyle;entryX=0;entryY=0;entryDx=0;entryDy=0;strokeColor=#f94848;exitX=1;exitY=0;exitDx=0;exitDy=0;" parent="1" source="hXT5IUuKc7Ygu6IwHs1R-5" target="hXT5IUuKc7Ygu6IwHs1R-11" edge="1">
          <mxGeometry width="160" relative="1" as="geometry">
            <mxPoint x="195" y="180" as="sourcePoint" />
            <mxPoint x="305" y="180" as="targetPoint" />
            <Array as="points">
              <mxPoint x="120" y="140" />
              <mxPoint x="120" y="140" />
            </Array>
          </mxGeometry>
        </mxCell>
        <mxCell id="hXT5IUuKc7Ygu6IwHs1R-22" value="" style="endArrow=openThin;endFill=0;endSize=7;html=1;rounded=0;strokeColor=#f94848;exitX=1;exitY=0;exitDx=0;exitDy=0;entryX=0;entryY=0;entryDx=0;entryDy=0;" parent="1" source="hXT5IUuKc7Ygu6IwHs1R-36" target="hXT5IUuKc7Ygu6IwHs1R-20" edge="1">
          <mxGeometry width="160" relative="1" as="geometry">
            <mxPoint x="334" y="210" as="sourcePoint" />
            <mxPoint x="414" y="210" as="targetPoint" />
            <Array as="points" />
          </mxGeometry>
        </mxCell>
        <mxCell id="hXT5IUuKc7Ygu6IwHs1R-23" value="" style="endArrow=none;endFill=0;endSize=7;html=1;rounded=0;strokeColor=#f94848;exitX=1;exitY=0;exitDx=0;exitDy=0;entryX=0;entryY=0;entryDx=0;entryDy=0;startArrow=openThin;startFill=0;dashed=1;" parent="1" source="hXT5IUuKc7Ygu6IwHs1R-7" target="hXT5IUuKc7Ygu6IwHs1R-47" edge="1">
          <mxGeometry width="160" relative="1" as="geometry">
            <mxPoint x="330" y="480" as="sourcePoint" />
            <mxPoint x="415" y="380" as="targetPoint" />
          </mxGeometry>
        </mxCell>
        <mxCell id="hXT5IUuKc7Ygu6IwHs1R-24" value="" style="rounded=0;whiteSpace=wrap;html=1;strokeColor=#FF3399;" parent="1" vertex="1">
          <mxGeometry x="775" y="480" width="10" height="30" as="geometry" />
        </mxCell>
        <mxCell id="hXT5IUuKc7Ygu6IwHs1R-26" value="" style="shape=table;startSize=0;container=1;collapsible=0;childLayout=tableLayout;" parent="1" vertex="1">
          <mxGeometry width="520" height="40" as="geometry" />
        </mxCell>
        <mxCell id="hXT5IUuKc7Ygu6IwHs1R-27" value="" style="shape=tableRow;horizontal=0;startSize=0;swimlaneHead=0;swimlaneBody=0;strokeColor=inherit;top=0;left=0;bottom=0;right=0;collapsible=0;dropTarget=0;fillColor=none;points=[[0,0.5],[1,0.5]];portConstraint=eastwest;" parent="hXT5IUuKc7Ygu6IwHs1R-26" vertex="1">
          <mxGeometry width="520" height="40" as="geometry" />
        </mxCell>
        <mxCell id="hXT5IUuKc7Ygu6IwHs1R-28" value="店鋪管理員" style="shape=partialRectangle;html=1;whiteSpace=wrap;connectable=0;strokeColor=inherit;overflow=hidden;fillColor=none;top=0;left=0;bottom=0;right=0;pointerEvents=1;" parent="hXT5IUuKc7Ygu6IwHs1R-27" vertex="1">
          <mxGeometry width="130" height="40" as="geometry">
            <mxRectangle width="130" height="40" as="alternateBounds" />
          </mxGeometry>
        </mxCell>
        <mxCell id="hXT5IUuKc7Ygu6IwHs1R-29" value="店鋪管理" style="shape=partialRectangle;html=1;whiteSpace=wrap;connectable=0;strokeColor=inherit;overflow=hidden;fillColor=none;top=0;left=0;bottom=0;right=0;pointerEvents=1;" parent="hXT5IUuKc7Ygu6IwHs1R-27" vertex="1">
          <mxGeometry x="130" width="130" height="40" as="geometry">
            <mxRectangle width="130" height="40" as="alternateBounds" />
          </mxGeometry>
        </mxCell>
        <mxCell id="hXT5IUuKc7Ygu6IwHs1R-30" value="評價控制" style="shape=partialRectangle;html=1;whiteSpace=wrap;connectable=0;strokeColor=inherit;overflow=hidden;fillColor=none;top=0;left=0;bottom=0;right=0;pointerEvents=1;" parent="hXT5IUuKc7Ygu6IwHs1R-27" vertex="1">
          <mxGeometry x="260" width="130" height="40" as="geometry">
            <mxRectangle width="130" height="40" as="alternateBounds" />
          </mxGeometry>
        </mxCell>
        <mxCell id="hXT5IUuKc7Ygu6IwHs1R-31" value="評價檔案" style="shape=partialRectangle;html=1;whiteSpace=wrap;connectable=0;strokeColor=inherit;overflow=hidden;fillColor=none;top=0;left=0;bottom=0;right=0;pointerEvents=1;" parent="hXT5IUuKc7Ygu6IwHs1R-27" vertex="1">
          <mxGeometry x="390" width="130" height="40" as="geometry">
            <mxRectangle width="130" height="40" as="alternateBounds" />
          </mxGeometry>
        </mxCell>
        <mxCell id="hXT5IUuKc7Ygu6IwHs1R-33" value="" style="rounded=0;whiteSpace=wrap;html=1;strokeColor=#FF3399;labelBackgroundColor=default;" parent="1" vertex="1">
          <mxGeometry x="195" y="258" width="10" height="22" as="geometry" />
        </mxCell>
        <mxCell id="hXT5IUuKc7Ygu6IwHs1R-36" value="" style="rounded=0;whiteSpace=wrap;html=1;strokeColor=#FF3399;labelBackgroundColor=default;" parent="1" vertex="1">
          <mxGeometry x="325" y="215" width="10" height="20" as="geometry" />
        </mxCell>
        <mxCell id="hXT5IUuKc7Ygu6IwHs1R-38" value="5:退出" style="text;html=1;align=center;verticalAlign=middle;resizable=0;points=[];autosize=1;strokeColor=none;fillColor=none;" parent="1" vertex="1">
          <mxGeometry x="100" y="278" width="60" height="30" as="geometry" />
        </mxCell>
        <mxCell id="hXT5IUuKc7Ygu6IwHs1R-39" value="" style="endArrow=none;endFill=0;endSize=7;html=1;rounded=0;strokeColor=#f94848;exitX=1;exitY=0;exitDx=0;exitDy=0;entryX=0;entryY=0;entryDx=0;entryDy=0;startArrow=openThin;startFill=0;dashed=1;" parent="1" source="hXT5IUuKc7Ygu6IwHs1R-33" target="hXT5IUuKc7Ygu6IwHs1R-45" edge="1">
          <mxGeometry width="160" relative="1" as="geometry">
            <mxPoint x="335" y="258" as="sourcePoint" />
            <mxPoint x="465" y="220" as="targetPoint" />
            <Array as="points" />
          </mxGeometry>
        </mxCell>
        <mxCell id="hXT5IUuKc7Ygu6IwHs1R-40" value="4:結果顯示" style="text;html=1;align=center;verticalAlign=middle;resizable=0;points=[];autosize=1;strokeColor=none;fillColor=none;" parent="1" vertex="1">
          <mxGeometry x="280" y="235" width="80" height="30" as="geometry" />
        </mxCell>
        <mxCell id="hXT5IUuKc7Ygu6IwHs1R-41" value="3:生成評價檔案" style="text;html=1;align=center;verticalAlign=middle;resizable=0;points=[];autosize=1;strokeColor=none;fillColor=none;" parent="1" vertex="1">
          <mxGeometry x="335" y="190" width="110" height="30" as="geometry" />
        </mxCell>
        <mxCell id="hXT5IUuKc7Ygu6IwHs1R-42" value="1:登錄" style="text;html=1;align=center;verticalAlign=middle;resizable=0;points=[];autosize=1;strokeColor=none;fillColor=none;" parent="1" vertex="1">
          <mxGeometry x="90" y="118" width="60" height="30" as="geometry" />
        </mxCell>
        <mxCell id="hXT5IUuKc7Ygu6IwHs1R-43" value="2:篩選評價" style="text;html=1;align=center;verticalAlign=middle;resizable=0;points=[];autosize=1;strokeColor=none;fillColor=none;" parent="1" vertex="1">
          <mxGeometry x="220" y="155" width="80" height="30" as="geometry" />
        </mxCell>
        <mxCell id="hXT5IUuKc7Ygu6IwHs1R-53" style="edgeStyle=orthogonalEdgeStyle;rounded=0;orthogonalLoop=1;jettySize=auto;html=1;entryX=0.5;entryY=1;entryDx=0;entryDy=0;endArrow=none;endFill=0;dashed=1;" parent="1" source="hXT5IUuKc7Ygu6IwHs1R-45" target="hXT5IUuKc7Ygu6IwHs1R-20" edge="1">
          <mxGeometry relative="1" as="geometry" />
        </mxCell>
        <mxCell id="hXT5IUuKc7Ygu6IwHs1R-45" value="" style="rounded=0;whiteSpace=wrap;html=1;strokeColor=#FF3399;labelBackgroundColor=default;" parent="1" vertex="1">
          <mxGeometry x="455" y="258" width="10" height="22" as="geometry" />
        </mxCell>
        <mxCell id="hXT5IUuKc7Ygu6IwHs1R-47" value="" style="rounded=0;whiteSpace=wrap;html=1;strokeColor=#FF3399;labelBackgroundColor=default;" parent="1" vertex="1">
          <mxGeometry x="195" y="308" width="10" height="22" as="geometry" />
        </mxCell>
        <mxCell id="hXT5IUuKc7Ygu6IwHs1R-56" value="" style="endArrow=openThin;endFill=0;endSize=7;html=1;rounded=0;strokeColor=#f94848;entryX=0;entryY=0;entryDx=0;entryDy=0;exitX=1.008;exitY=0.656;exitDx=0;exitDy=0;exitPerimeter=0;" parent="1" source="hXT5IUuKc7Ygu6IwHs1R-11" target="hXT5IUuKc7Ygu6IwHs1R-14" edge="1">
          <mxGeometry width="160" relative="1" as="geometry">
            <mxPoint x="210" y="180" as="sourcePoint" />
            <mxPoint x="325" y="178" as="targetPoint" />
            <Array as="points" />
          </mxGeometry>
        </mxCell>
      </root>
    </mxGraphModel>
  </diagram>
</mxfile>
